HIERARCHY
ROOT Hips
{
	OFFSET 0.053599 88.859886 3.107447
	CHANNELS 6 Xposition Yposition Zposition Zrotation Yrotation Xrotation 
	JOINT Spine
	{
		OFFSET -0.000000 8.814246 -2.080107
		CHANNELS 3 Zrotation Yrotation Xrotation
		JOINT Spine1
		{
			OFFSET 0.000000 8.844141 0.000000
			CHANNELS 3 Zrotation Yrotation Xrotation
			JOINT Spine2
			{
				OFFSET -0.000000 11.682268 0.000000
				CHANNELS 3 Zrotation Yrotation Xrotation
				JOINT Spine3
				{
					OFFSET 0.000000 11.746700 0.000000
					CHANNELS 3 Zrotation Yrotation Xrotation
					JOINT Neck
					{
						OFFSET -0.000000 17.658264 -0.000000
						CHANNELS 3 Zrotation Yrotation Xrotation
						JOINT Neck1
						{
							OFFSET -0.000000 5.101515 -0.000000
							CHANNELS 3 Zrotation Yrotation Xrotation
							JOINT Head
							{
								OFFSET 0.000000 5.101515 0.000000
								CHANNELS 3 Zrotation Yrotation Xrotation
								JOINT HeadEnd
								{
									OFFSET 0.000000 11.655085 0.000000
									CHANNELS 3 Zrotation Yrotation Xrotation
									End Site
									{
										OFFSET 0.000000 0.000000 0.000000
									}
								}
							}
						}
					}
					JOINT RightShoulder
					{
						OFFSET -2.625389 11.175210 0.000000
						CHANNELS 3 Zrotation Yrotation Xrotation
						JOINT RightArm
						{
							OFFSET -0.000000 10.434715 -0.000000
							CHANNELS 3 Zrotation Yrotation Xrotation
							JOINT RightForeArm
							{
								OFFSET -0.000000 29.628420 0.000000
								CHANNELS 3 Zrotation Yrotation Xrotation
								JOINT RightHand
								{
									OFFSET -0.000000 22.857611 0.000000
									CHANNELS 3 Zrotation Yrotation Xrotation
									JOINT RightHandThumb1
									{
										OFFSET -2.867323 3.959563 2.944291
										CHANNELS 3 Zrotation Yrotation Xrotation
										JOINT RightHandThumb2
										{
											OFFSET 0.000000 3.350399 0.000000
											CHANNELS 3 Zrotation Yrotation Xrotation
											JOINT RightHandThumb3
											{
												OFFSET 0.000000 3.756509 -0.000000
												CHANNELS 3 Zrotation Yrotation Xrotation
												JOINT RightHandThumb4
												{
													OFFSET 0.000000 3.147345 0.000000
													CHANNELS 3 Zrotation Yrotation Xrotation
													End Site
													{
														OFFSET 0.000000 0.000000 0.000000
													}
												}
											}
										}
									}
									JOINT RightHandIndex1
									{
										OFFSET -0.086752 10.030893 2.345280
										CHANNELS 3 Zrotation Yrotation Xrotation
										JOINT RightHandIndex2
										{
											OFFSET -0.000000 4.061090 0.000000
											CHANNELS 3 Zrotation Yrotation Xrotation
											JOINT RightHandIndex3
											{
												OFFSET -0.000000 3.248873 0.000000
												CHANNELS 3 Zrotation Yrotation Xrotation
												JOINT RightHandIndex4
												{
													OFFSET 0.000000 2.639709 -0.000000
													CHANNELS 3 Zrotation Yrotation Xrotation
													End Site
													{
														OFFSET 0.000000 0.000000 0.000000
													}
												}
											}
										}
									}
									JOINT RightHandMiddle1
									{
										OFFSET 0.104102 9.502952 0.006768
										CHANNELS 3 Zrotation Yrotation Xrotation
										JOINT RightHandMiddle2
										{
											OFFSET 0.000000 4.568727 0.000000
											CHANNELS 3 Zrotation Yrotation Xrotation
											JOINT RightHandMiddle3
											{
												OFFSET 0.000000 3.654981 -0.000000
												CHANNELS 3 Zrotation Yrotation Xrotation
												JOINT RightHandMiddle4
												{
													OFFSET -0.000000 2.741236 -0.000000
													CHANNELS 3 Zrotation Yrotation Xrotation
													End Site
													{
														OFFSET 0.000000 0.000000 0.000000
													}
												}
											}
										}
									}
									JOINT RightHandRing1
									{
										OFFSET 0.086752 8.921708 -2.267442
										CHANNELS 3 Zrotation Yrotation Xrotation
										JOINT RightHandRing2
										{
											OFFSET -0.000000 4.061090 0.000000
											CHANNELS 3 Zrotation Yrotation Xrotation
											JOINT RightHandRing3
											{
												OFFSET 0.000000 3.654981 -0.000000
												CHANNELS 3 Zrotation Yrotation Xrotation
												JOINT RightHandRing4
												{
													OFFSET 0.000000 2.741236 -0.000000
													CHANNELS 3 Zrotation Yrotation Xrotation
													End Site
													{
														OFFSET 0.000000 0.000000 0.000000
													}
												}
											}
										}
									}
									JOINT RightHandPinky1
									{
										OFFSET -0.173504 7.976997 -4.467199
										CHANNELS 3 Zrotation Yrotation Xrotation
										JOINT RightHandPinky2
										{
											OFFSET 0.000000 3.350399 -0.000000
											CHANNELS 3 Zrotation Yrotation Xrotation
											JOINT RightHandPinky3
											{
												OFFSET -0.000000 2.842763 0.000000
												CHANNELS 3 Zrotation Yrotation Xrotation
												JOINT RightHandPinky4
												{
													OFFSET -0.000000 2.639709 0.000000
													CHANNELS 3 Zrotation Yrotation Xrotation
													End Site
													{
														OFFSET 0.000000 0.000000 0.000000
													}
												}
											}
										}
									}
									JOINT RightForeArmEnd
									{
										OFFSET 0.000000 0.000000 0.000000
										CHANNELS 3 Zrotation Yrotation Xrotation
										End Site
										{
											OFFSET 0.000000 0.000000 0.000000
										}
									}
								}
								JOINT RightArmEnd
								{
									OFFSET 0.000000 0.000000 0.000000
									CHANNELS 3 Zrotation Yrotation Xrotation
									End Site
									{
										OFFSET 0.000000 0.000000 0.000000
									}
								}
							}
						}
					}
					JOINT LeftShoulder
					{
						OFFSET 2.625389 11.175210 0.000000
						CHANNELS 3 Zrotation Yrotation Xrotation
						JOINT LeftArm
						{
							OFFSET 0.000000 10.813635 -0.000000
							CHANNELS 3 Zrotation Yrotation Xrotation
							JOINT LeftForeArm
							{
								OFFSET 0.000000 28.724781 0.000000
								CHANNELS 3 Zrotation Yrotation Xrotation
								JOINT LeftHand
								{
									OFFSET 0.644384 25.716167 -0.328871
									CHANNELS 3 Zrotation Yrotation Xrotation
									JOINT LeftHandThumb1
									{
										OFFSET 2.867323 3.959563 2.944291
										CHANNELS 3 Zrotation Yrotation Xrotation
										JOINT LeftHandThumb2
										{
											OFFSET 0.000000 3.350399 0.000000
											CHANNELS 3 Zrotation Yrotation Xrotation
											JOINT LeftHandThumb3
											{
												OFFSET -0.000000 3.756509 0.000000
												CHANNELS 3 Zrotation Yrotation Xrotation
												JOINT LeftHandThumb4
												{
													OFFSET -0.000000 3.100000 0.000000
													CHANNELS 3 Zrotation Yrotation Xrotation
													End Site
													{
														OFFSET 0.000000 0.000000 0.000000
													}
												}
											}
										}
									}
									JOINT LeftHandIndex1
									{
										OFFSET 0.086752 10.030893 2.345280
										CHANNELS 3 Zrotation Yrotation Xrotation
										JOINT LeftHandIndex2
										{
											OFFSET -0.000000 4.061090 -0.000000
											CHANNELS 3 Zrotation Yrotation Xrotation
											JOINT LeftHandIndex3
											{
												OFFSET 0.000000 3.248873 -0.000000
												CHANNELS 3 Zrotation Yrotation Xrotation
												JOINT LeftHandIndex4
												{
													OFFSET 0.000000 2.639709 -0.000000
													CHANNELS 3 Zrotation Yrotation Xrotation
													End Site
													{
														OFFSET 0.000000 0.000000 0.000000
													}
												}
											}
										}
									}
									JOINT LeftHandMiddle1
									{
										OFFSET -0.104102 9.502952 0.006768
										CHANNELS 3 Zrotation Yrotation Xrotation
										JOINT LeftHandMiddle2
										{
											OFFSET -0.000000 4.568727 -0.000000
											CHANNELS 3 Zrotation Yrotation Xrotation
											JOINT LeftHandMiddle3
											{
												OFFSET 0.000000 3.654981 0.000000
												CHANNELS 3 Zrotation Yrotation Xrotation
												JOINT LeftHandMiddle4
												{
													OFFSET 0.000000 2.741236 -0.000000
													CHANNELS 3 Zrotation Yrotation Xrotation
													End Site
													{
														OFFSET 0.000000 0.000000 0.000000
													}
												}
											}
										}
									}
									JOINT LeftHandRing1
									{
										OFFSET -0.086752 8.921708 -2.267442
										CHANNELS 3 Zrotation Yrotation Xrotation
										JOINT LeftHandRing2
										{
											OFFSET 0.000000 4.061090 0.000000
											CHANNELS 3 Zrotation Yrotation Xrotation
											JOINT LeftHandRing3
											{
												OFFSET 0.000000 3.654981 0.000000
												CHANNELS 3 Zrotation Yrotation Xrotation
												JOINT LeftHandRing4
												{
													OFFSET 0.000000 2.741236 0.000000
													CHANNELS 3 Zrotation Yrotation Xrotation
													End Site
													{
														OFFSET 0.000000 0.000000 0.000000
													}
												}
											}
										}
									}
									JOINT LeftHandPinky1
									{
										OFFSET 0.173504 7.976997 -4.467199
										CHANNELS 3 Zrotation Yrotation Xrotation
										JOINT LeftHandPinky2
										{
											OFFSET -0.000000 3.350399 -0.000000
											CHANNELS 3 Zrotation Yrotation Xrotation
											JOINT LeftHandPinky3
											{
												OFFSET 0.000000 2.842763 0.000000
												CHANNELS 3 Zrotation Yrotation Xrotation
												JOINT LeftHandPinky4
												{
													OFFSET -0.000000 2.639709 -0.000000
													CHANNELS 3 Zrotation Yrotation Xrotation
													End Site
													{
														OFFSET 0.000000 0.000000 0.000000
													}
												}
											}
										}
									}
									JOINT LeftForeArmEnd
									{
										OFFSET 0.000000 0.000000 0.000000
										CHANNELS 3 Zrotation Yrotation Xrotation
										End Site
										{
											OFFSET 0.000000 0.000000 0.000000
										}
									}
								}
								JOINT LeftArmEnd
								{
									OFFSET 0.000000 0.000000 0.000000
									CHANNELS 3 Zrotation Yrotation Xrotation
									End Site
									{
										OFFSET 0.000000 0.000000 0.000000
									}
								}
							}
						}
					}
				}
			}
		}
	}
	JOINT RightUpLeg
	{
		OFFSET -11.289943 0.000000 0.000000
		CHANNELS 3 Zrotation Yrotation Xrotation
		JOINT RightLeg
		{
			OFFSET 0.000000 -38.200325 0.000000
			CHANNELS 3 Zrotation Yrotation Xrotation
			JOINT RightFoot
			{
				OFFSET -0.000000 -39.900856 -0.000000
				CHANNELS 3 Zrotation Yrotation Xrotation
				JOINT RightToeBase
				{
					OFFSET 0.000000 0.000000 15.261641
					CHANNELS 3 Zrotation Yrotation Xrotation
					JOINT RightToeBaseEnd
					{
						OFFSET 0.000000 0.000000 7.370709
						CHANNELS 3 Zrotation Yrotation Xrotation
						End Site
						{
							OFFSET 0.000000 0.000000 0.000000
						}
					}
				}
				JOINT RightLegEnd
				{
					OFFSET 0.000000 0.000000 0.000000
					CHANNELS 3 Zrotation Yrotation Xrotation
					End Site
					{
						OFFSET 0.000000 0.000000 0.000000
					}
				}
			}
			JOINT RightUpLegEnd
			{
				OFFSET 0.000000 0.000000 0.000000
				CHANNELS 3 Zrotation Yrotation Xrotation
				End Site
				{
					OFFSET 0.000000 0.000000 0.000000
				}
			}
		}
	}
	JOINT LeftUpLeg
	{
		OFFSET 11.315661 -0.000000 0.000000
		CHANNELS 3 Zrotation Yrotation Xrotation
		JOINT LeftLeg
		{
			OFFSET -0.000000 -38.200325 -0.000000
			CHANNELS 3 Zrotation Yrotation Xrotation
			JOINT LeftFoot
			{
				OFFSET 0.000000 -39.900856 -0.000000
				CHANNELS 3 Zrotation Yrotation Xrotation
				JOINT LeftToeBase
				{
					OFFSET -0.000000 -0.000000 15.261641
					CHANNELS 3 Zrotation Yrotation Xrotation
					JOINT LeftToeBaseEnd
					{
						OFFSET 0.000000 -0.000000 7.539996
						CHANNELS 3 Zrotation Yrotation Xrotation
						End Site
						{
							OFFSET 0.000000 0.000000 0.000000
						}
					}
				}
				JOINT LeftLegEnd
				{
					OFFSET 0.000000 0.000000 0.000000
					CHANNELS 3 Zrotation Yrotation Xrotation
					End Site
					{
						OFFSET 0.000000 0.000000 0.000000
					}
				}
			}
			JOINT LeftUpLegEnd
			{
				OFFSET 0.000000 0.000000 0.000000
				CHANNELS 3 Zrotation Yrotation Xrotation
				End Site
				{
					OFFSET 0.000000 0.000000 0.000000
				}
			}
		}
	}
}
MOTION
Frames: 4
Frame Time: 0.016667
0.019458 88.701118 2.849656 -0.060836 0.296764 -10.922365 0.827221 0.028525 7.168978 -0.917729 0.300770 3.722595 0.198797 -0.790389 4.708336 -1.212941 0.108113 5.252116 2.497173 -0.111926 4.708630 0.345859 0.459254 -3.343982 -0.047549 -0.684347 -19.497715 0.000000 0.000000 0.000000 92.438461 -0.271282 9.975158 69.036690 -21.073330 2.327636 0.325739 19.882736 31.919432 -4.339271 12.299191 -6.111887 18.513071 30.513800 63.304073 -7.203050 -9.634769 -16.819836 -5.256460 -6.334775 -11.580824 0.000000 0.000000 0.000000 0.637101 -9.105668 6.631328 3.615820 0.420461 1.029468 3.260600 -0.008725 1.032206 0.000000 0.000000 0.000000 1.433030 -3.667981 3.846737 2.775494 0.491906 0.355635 3.361102 -0.017170 0.333316 0.000000 0.000000 0.000000 4.465646 3.808769 1.236572 4.206918 -0.945048 -0.591853 4.004303 0.017781 -0.410294 0.000000 0.000000 0.000000 5.667327 12.098427 -2.432882 5.301493 -1.822825 -1.612771 4.853603 0.119819 -1.216481 0.000000 0.000000 0.000000 0.000000 0.000000 0.000000 0.000000 0.000000 0.000000 -90.268646 0.295848 5.214900 -69.697304 13.717137 -7.468349 -0.674853 -14.539020 58.963566 7.524193 -12.185331 -12.987708 -20.321039 -30.040413 61.623119 8.907324 13.012465 -21.829771 6.635625 8.711967 -15.304288 0.000000 0.000000 0.000000 -19.491322 -5.523525 2.519635 -13.062329 0.359448 -0.952647 -13.093353 -0.112986 -0.920978 0.000000 0.000000 0.000000 -20.119930 -0.176245 0.933424 -13.426188 0.423266 -0.458733 -13.618803 -0.051388 -0.362627 0.000000 0.000000 0.000000 -25.727871 8.547697 -0.304910 -17.067421 -0.887061 0.804799 -17.006828 0.071685 0.632758 0.000000 0.000000 0.000000 -29.356920 17.262854 -2.472213 -19.354418 -1.514634 2.634331 -18.829969 0.415907 2.266489 0.000000 0.000000 0.000000 0.000000 0.000000 0.000000 0.000000 0.000000 0.000000 -0.736045 -9.906793 15.314924 -0.074355 -0.680924 4.819942 -3.088238 -7.892478 17.233059 -0.856942 0.811539 -18.552973 0.000000 0.000000 0.000000 0.000000 0.000000 0.000000 0.000000 0.000000 0.000000 -1.408757 -5.904419 9.641698 0.047183 0.289801 10.088088 3.938466 -1.548798 16.026314 0.223951 -0.398325 -20.243141 0.000000 0.000000 0.000000 0.000000 0.000000 0.000000 0.000000 0.000000 0.000000 
0.007128 88.697189 2.881261 -0.068204 0.304541 -10.916961 0.817314 0.030202 7.168864 -0.934789 0.298310 3.734748 0.209810 -0.807057 4.710014 -1.211592 0.101760 5.230179 2.421899 -0.078936 4.644395 0.357192 0.461509 -3.364026 -0.053235 -0.687499 -19.448904 0.000000 0.000000 0.000000 92.463997 -0.269010 9.975904 69.015228 -21.240484 2.445718 0.318618 19.952209 31.612066 -3.803306 12.366515 -6.039152 18.761160 30.437059 63.068802 -7.454763 -10.118306 -17.543842 -5.460856 -6.648980 -12.092355 0.000000 0.000000 0.000000 2.616568 -9.462257 5.867627 4.660050 0.405995 1.093816 4.314064 -0.022228 1.091911 0.000000 0.000000 0.000000 3.221523 -3.989804 3.342817 3.763513 0.485918 0.380091 4.353936 -0.022538 0.354176 0.000000 0.000000 0.000000 5.991530 3.531961 1.066314 5.134754 -0.936067 -0.628483 4.926805 0.024895 -0.438679 0.000000 0.000000 0.000000 6.924144 11.863905 -2.248147 6.050360 -1.797553 -1.726351 5.608922 0.140112 -1.313372 0.000000 0.000000 0.000000 0.000000 0.000000 0.000000 0.000000 0.000000 0.000000 -90.250694 0.298812 5.216320 -69.807457 13.758513 -7.684039 -0.703004 -14.702680 58.750820 6.996411 -12.053069 -13.163634 -20.567560 -29.971315 61.385681 9.135375 13.506315 -22.563454 6.829353 9.034339 -15.815276 0.000000 0.000000 0.000000 -21.303585 -5.175683 1.761758 -14.192647 0.340867 -1.018006 -14.220394 -0.130791 -0.980412 0.000000 0.000000 0.000000 -21.852787 0.134794 0.431685 -14.529164 0.413892 -0.486444 -14.725125 -0.059194 -0.385616 0.000000 0.000000 0.000000 -27.355789 8.781684 -0.516544 -18.150187 -0.871421 0.840775 -18.085310 0.082222 0.660705 0.000000 0.000000 0.000000 -30.744545 17.399160 -2.377394 -20.304075 -1.473452 2.734341 -19.770554 0.447083 2.346958 0.000000 0.000000 0.000000 0.000000 0.000000 0.000000 0.000000 0.000000 0.000000 -0.747896 -9.916396 15.331438 -0.075129 -0.684122 4.831405 -3.078521 -7.890400 17.207258 -0.863141 0.818084 -18.539633 0.000000 0.000000 0.000000 0.000000 0.000000 0.000000 0.000000 0.000000 0.000000 -1.421378 -5.893116 9.652347 0.046143 0.285398 10.104053 3.938605 -1.550328 15.989211 0.221183 -0.391719 -20.235497 0.000000 0.000000 0.000000 0.000000 0.000000 0.000000 0.000000 0.000000 0.000000 
-0.002795 88.693855 2.913502 -0.075170 0.311500 -10.910579 0.811115 0.031804 7.167256 -0.946086 0.295515 3.742240 0.213716 -0.817315 4.715565 -1.209866 0.096855 5.209486 2.331384 -0.041554 4.603278 0.369592 0.466615 -3.371565 -0.060521 -0.694256 -19.407272 0.000000 0.000000 0.000000 92.493225 -0.268805 9.974160 68.996201 -21.377247 2.576081 0.310308 20.015789 31.276894 -3.245009 12.464818 -5.989812 18.994160 30.365660 62.849258 -7.688642 -10.573191 -18.222940 -5.651264 -6.944174 -12.571005 0.000000 0.000000 0.000000 4.504797 -9.794492 5.108885 5.696151 0.392094 1.153900 5.360470 -0.034989 1.147797 0.000000 0.000000 0.000000 4.917846 -4.292752 2.842301 4.742574 0.480020 0.403008 5.337500 -0.027639 0.373658 0.000000 0.000000 0.000000 7.426483 3.269650 0.894857 6.042459 -0.927411 -0.663664 5.831591 0.031764 -0.465991 0.000000 0.000000 0.000000 8.098748 11.639028 -2.075156 6.772137 -1.772909 -1.838054 6.339891 0.159641 -1.409483 0.000000 0.000000 0.000000 0.000000 0.000000 0.000000 0.000000 0.000000 0.000000 -90.238739 0.300423 5.214034 -69.931992 13.778682 -7.873429 -0.727714 -14.829341 58.531666 6.593417 -11.922817 -13.330189 -20.746834 -29.920824 61.211361 9.301611 13.868633 -23.101643 6.970862 9.270589 -16.188923 0.000000 0.000000 0.000000 -22.634787 -4.915064 1.205865 -15.028820 0.324688 -1.078228 -15.053147 -0.146055 -1.035591 0.000000 0.000000 0.000000 -23.119373 0.364100 0.062138 -15.339143 0.405715 -0.511627 -15.537380 -0.065991 -0.406663 0.000000 0.000000 0.000000 -28.527662 8.944108 -0.679474 -18.925955 -0.858076 0.873408 -18.857847 0.091343 0.685873 0.000000 0.000000 0.000000 -31.721901 17.488638 -2.322488 -20.970345 -1.439078 2.825795 -20.427734 0.473715 2.421557 0.000000 0.000000 0.000000 0.000000 0.000000 0.000000 0.000000 0.000000 0.000000 -0.761899 -9.933171 15.351563 -0.075606 -0.686494 4.842895 -3.068487 -7.889894 17.178064 -0.868922 0.824144 -18.522932 0.000000 0.000000 0.000000 0.000000 0.000000 0.000000 0.000000 0.000000 0.000000 -1.435164 -5.888118 9.656601 0.045392 0.281837 10.124907 3.941745 -1.559100 15.959983 0.217902 -0.385619 -20.232275 0.000000 0.000000 0.000000 0.000000 0.000000 0.000000 0.000000 0.000000 0.000000 
-0.010254 88.691002 2.946580 -0.082519 0.319545 -10.904762 0.809271 0.033162 7.164566 -0.950330 0.291839 3.744364 0.209773 -0.819266 4.725564 -1.207196 0.093321 5.192513 2.228638 0.001004 4.583899 0.381085 0.475296 -3.368597 -0.070068 -0.703250 -19.373478 0.000000 0.000000 0.000000 92.517189 -0.269296 9.972155 68.982933 -21.490849 2.708616 0.302592 20.060949 30.927214 -2.665735 12.595243 -5.987592 19.195845 30.304087 62.659710 -7.889670 -10.967674 -18.810764 -5.815101 -7.200007 -12.984433 0.000000 0.000000 0.000000 6.165582 -10.078546 4.417433 6.623134 0.379243 1.207308 6.296978 -0.046594 1.197592 0.000000 0.000000 0.000000 6.402545 -4.555219 2.385004 5.615753 0.474439 0.423663 6.214189 -0.032324 0.391112 0.000000 0.000000 0.000000 8.673072 3.039469 0.734750 6.842531 -0.919380 -0.695930 6.631023 0.038131 -0.491085 0.000000 0.000000 0.000000 9.110512 11.439071 -1.926996 7.400013 -1.749776 -1.941787 6.977903 0.177795 -1.499353 0.000000 0.000000 0.000000 0.000000 0.000000 0.000000 0.000000 0.000000 0.000000 -90.229797 0.300805 5.208927 -70.067345 13.773688 -8.036599 -0.751160 -14.919554 58.300968 6.273552 -11.800290 -13.494064 -20.873219 -29.884726 61.086441 9.420321 14.127056 -23.486494 7.071907 9.439141 -16.454798 0.000000 0.000000 0.000000 -23.587845 -4.723629 0.808624 -15.631615 0.310988 -1.131429 -15.652187 -0.158741 -1.084535 0.000000 0.000000 0.000000 -24.016556 0.529349 -0.205579 -15.916520 0.398787 -0.533724 -16.116659 -0.071741 -0.425186 0.000000 0.000000 0.000000 -29.338263 9.052281 -0.805021 -19.460236 -0.846914 0.901979 -19.389730 0.099056 0.707752 0.000000 0.000000 0.000000 -32.374672 17.543541 -2.298892 -21.414310 -1.410807 2.906484 -20.862959 0.495991 2.488116 0.000000 0.000000 0.000000 0.000000 0.000000 0.000000 0.000000 0.000000 0.000000 -0.775110 -9.956158 15.376282 -0.075714 -0.687952 4.852926 -3.060439 -7.892076 17.144974 -0.873738 0.829299 -18.502871 0.000000 0.000000 0.000000 0.000000 0.000000 0.000000 0.000000 0.000000 0.000000 -1.446968 -5.887990 9.656710 0.044913 0.279258 10.147851 3.948066 -1.576661 15.937147 0.214631 -0.380327 -20.231819 0.000000 0.000000 0.000000 0.000000 0.000000 0.000000 0.000000 0.000000 0.000000 
